# xmcd
#
# Track frame offsets: 
#        150
#        15302
#        28744
#        41783
#        53381
#        65153
#        82952
#        95050
#        109727
#        120972
#
# Disc length: 1834 seconds
#
# Revision: 0
# Processed by: cddbd v1.5.2PL0 Copyright (c) Steve Scherf et al.
# Submitted via: ExactAudioCopy v0.99pb5
#
DISCID=7607280a
DTITLE=Country Wytske - Dûnsje mei my
DYEAR=2010
DGENRE=Country
TTITLE0=Fereale as in hin
TTITLE1=Myn doarpke
TTITLE2=Gek op dy
TTITLE3=Ik ha dy en do hast my
TTITLE4=Dûnsje mei my
TTITLE5=Tekken fan it bêd
TTITLE6=Myn learzens
TTITLE7=A6 A7
TTITLE8=O leave Geart
TTITLE9=Wytske ut de knipe
EXTD=
EXTT0=
EXTT1=
EXTT2=
EXTT3=
EXTT4=
EXTT5=
EXTT6=
EXTT7=
EXTT8=
EXTT9=
PLAYORDER=
